<svg width="205" height="40" viewBox="0 0 205 40" fill="none" xmlns="http://www.w3.org/2000/svg">
<path d="M24.2389 0C24.2389 3.2585 23.5976 6.42244 22.3322 9.40308C21.7123 10.8649 20.9556 12.2513 20.0694 13.5518C19.2124 14.8107 18.2338 15.9897 17.1398 17.0794C16.045 18.1696 14.8627 19.1457 13.599 20.0001C12.2939 19.1174 10.9035 18.3638 9.43706 17.7451C6.44559 16.4846 3.27145 15.8451 0.000732422 15.8451V15.8439C4.13218 15.8439 8.02243 14.2846 10.9951 11.4452C11.1673 11.2906 11.332 11.1273 11.4863 10.9557C14.3352 7.99295 15.8999 4.11624 15.8999 0H24.2389Z" fill="#3FA58C"/>
<path d="M10.9944 11.4446C11.078 11.365 11.1608 11.2846 11.2427 11.2025C11.3251 11.1205 11.4057 11.038 11.4856 10.9551C11.3309 11.1267 11.1666 11.2904 10.9944 11.4446Z" fill="#3FA58C"/>
<path d="M13.1765 6.56491C13.1765 8.2529 12.5369 9.793 11.486 10.9557C11.3313 11.1273 11.167 11.291 10.9948 11.4452C9.82719 12.4925 8.28338 13.1298 6.58867 13.1298C2.95008 13.1302 0 10.1908 0 6.56491C0 2.93898 2.95008 0 6.58825 0C10.2264 0 13.1765 2.93898 13.1765 6.56491Z" fill="#3FA58C"/>
<path d="M40.1376 15.8439V24.1538C36.8677 24.1538 33.6927 23.5148 30.7017 22.2538C29.2348 21.636 27.8448 20.8824 26.5397 20.0001C25.276 19.1457 24.0934 18.1696 22.9989 17.0794C21.9049 15.9897 20.9259 14.8107 20.0693 13.5518C20.9552 12.2513 21.7118 10.8649 22.3322 9.40309C23.5976 6.42286 24.2388 3.25892 24.2388 0C24.2388 4.11541 25.8031 7.99129 28.6512 10.9532C28.6508 10.9536 28.6516 10.9549 28.6529 10.9553C28.8075 11.1269 28.9714 11.291 29.1441 11.4448C29.1445 11.446 29.1457 11.4464 29.1462 11.4464C32.1184 14.2846 36.0082 15.8434 40.1376 15.8434V15.8439Z" fill="#42CCB5"/>
<path d="M29.1438 11.4446C28.9707 11.2904 28.8068 11.1267 28.6526 10.9551C28.7324 11.038 28.8131 11.1209 28.8955 11.2025C28.9778 11.2846 29.0606 11.365 29.1438 11.4446Z" fill="#42CCB5"/>
<path d="M40.1379 6.56491C40.1379 10.1913 37.1886 13.1302 33.5496 13.1302C31.8574 13.1302 30.3132 12.4937 29.1465 11.4473C29.146 11.4473 29.1448 11.4468 29.1444 11.4456C28.9713 11.2915 28.8074 11.1277 28.6532 10.9561C28.6519 10.9557 28.6511 10.9544 28.6515 10.954C27.601 9.79134 26.9626 8.25249 26.9626 6.56533C26.9618 2.93899 29.9115 0 33.5496 0C37.1878 0 40.1379 2.93899 40.1379 6.56491Z" fill="#42CCB5"/>
<path d="M40.1379 24.1537V24.155C36.0081 24.155 32.1187 25.7138 29.1465 28.552L29.1444 28.5537C28.9713 28.7082 28.8074 28.8715 28.6532 29.0432L28.6515 29.0452C25.8034 32.0071 24.2391 35.8834 24.2391 39.9993H15.9001C15.9001 36.7399 16.5414 33.5768 17.8064 30.5962C18.4272 29.134 19.1838 27.748 20.0696 26.4474C20.9266 25.1881 21.9052 24.0092 22.9992 22.9194C24.0941 21.8292 25.2763 20.8536 26.54 20C27.8451 20.8823 29.2355 21.6359 30.702 22.2537C33.6926 23.5147 36.8676 24.1537 40.1379 24.1537Z" fill="#3FA58C"/>
<path d="M29.1438 28.5527C29.0602 28.6323 28.9774 28.7127 28.8955 28.7948C28.8131 28.8768 28.7324 28.9593 28.6526 29.0422C28.8073 28.8706 28.9711 28.7069 29.1438 28.5527Z" fill="#3FA58C"/>
<path d="M40.1377 33.4341C40.1377 37.0596 37.1885 39.9994 33.5495 39.9994C29.9105 39.9994 26.9617 37.0596 26.9617 33.4341C26.9617 31.7477 27.6004 30.2085 28.6505 29.0454C28.6505 29.0449 28.651 29.0437 28.6522 29.0433C28.8069 28.8716 28.9708 28.7079 29.1434 28.5538C29.1438 28.5525 29.1451 28.5521 29.1455 28.5521C30.3122 27.5053 31.8565 26.8691 33.5487 26.8691C37.1877 26.8691 40.1369 29.809 40.1369 33.4345L40.1377 33.4341Z" fill="#3FA58C"/>
<path d="M20.0691 26.4472C19.1833 27.7477 18.4266 29.1337 17.8058 30.5959C16.5408 33.5761 15.8996 36.7396 15.8996 39.999C15.8996 35.8865 14.3378 32.0127 11.4939 29.0516C11.491 29.0487 11.4889 29.0462 11.4855 29.0429C11.3309 28.8712 11.1666 28.7075 10.9943 28.5534C10.9914 28.5505 10.9889 28.548 10.9856 28.5451C8.01417 25.7119 4.12685 24.1547 0 24.1547V15.8447C3.27071 15.8447 6.44486 16.4846 9.43633 17.7448C10.9032 18.3634 12.2932 19.1166 13.5983 19.9997C14.862 20.8537 16.0446 21.8289 17.1391 22.92C18.2331 24.0101 19.2121 25.1887 20.0687 26.4476L20.0691 26.4472Z" fill="#42CCB5"/>
<path d="M11.4856 29.0432C11.4057 28.9603 11.3251 28.8774 11.2427 28.7957C11.1603 28.7137 11.0776 28.6333 10.9944 28.5537C11.1666 28.7083 11.3313 28.8716 11.4856 29.0432Z" fill="#42CCB5"/>
<path d="M13.1765 33.4335C13.1765 37.0598 10.2264 39.9988 6.58825 39.9988C2.95008 39.9988 0 37.0594 0 33.4335C0 29.8076 2.95008 26.8682 6.58825 26.8682C8.27837 26.8682 9.81925 27.5022 10.9856 28.5445C10.9889 28.5474 10.9918 28.5499 10.9943 28.5528C11.1666 28.7074 11.3313 28.8707 11.4855 29.0423C11.4889 29.0456 11.491 29.0486 11.4939 29.0511C12.5398 30.2133 13.1761 31.7493 13.1761 33.4331L13.1765 33.4335Z" fill="#42CCB5"/>
<path d="M74.7599 9.54199C77.2183 9.54199 79.1852 10.3064 80.6408 11.8549C82.0964 13.4033 82.8238 15.5591 82.8238 18.3423V30.4157H77.4938V19.4596C77.4938 16.1473 76.1958 14.4814 73.5994 14.4814C72.2031 14.4814 71.1409 14.9713 70.3935 15.9515C69.646 16.9313 69.2723 18.3035 69.2723 20.0869V30.4357H63.903V19.4796C63.903 16.1673 62.6247 14.5014 60.0872 14.5014C58.6513 14.5014 57.5698 15.0109 56.8224 16.0107C56.0749 17.0101 55.7012 18.4214 55.7012 20.2444V30.4361H50.3909V10.1302H55.7012V12.541C57.2354 10.5614 59.2612 9.56199 61.7589 9.56199C64.5322 9.56199 66.5776 10.5814 67.8953 12.6197C69.5081 10.5814 71.8094 9.56199 74.7791 9.56199L74.7594 9.54241L74.7599 9.54199Z" fill="#153849"/>
<path d="M107.645 10.1299L95.392 38.8632H89.9241L93.6216 29.9846L84.3972 10.1299H90.2388L96.277 23.8496L101.961 10.1299H107.645Z" fill="#153849"/>
<path d="M121.983 9.56152C124.835 9.56152 127.215 10.5809 129.143 12.6192C131.07 14.6576 132.034 17.2054 132.034 20.2827C132.034 23.36 131.07 25.8686 129.143 27.9265C127.215 29.9845 124.835 31.0038 122.023 31.0038C119.21 31.0038 117.047 29.9844 115.414 27.9461V38.8631H110.104V10.1302H115.414V12.5801C117.027 10.5613 119.23 9.56152 122.023 9.56152H121.983ZM121.059 26.2998C122.73 26.2998 124.107 25.7316 125.189 24.6143C126.27 23.497 126.802 22.0469 126.802 20.2827C126.802 18.5184 126.271 17.1075 125.189 15.9902C124.107 14.8729 122.73 14.3243 121.059 14.3243C119.387 14.3243 118.05 14.8925 116.928 16.0098C115.807 17.1271 115.257 18.538 115.257 20.2435C115.257 21.949 115.807 23.4187 116.928 24.5556C118.05 25.6924 119.426 26.2606 121.059 26.2606V26.2998Z" fill="#153849"/>
<path d="M144.877 31.0234C142.025 31.0234 139.645 30.004 137.718 27.9461C135.79 25.8882 134.827 23.3404 134.827 20.3023C134.827 17.2641 135.79 14.6576 137.718 12.6192C139.645 10.5809 142.045 9.56152 144.897 9.56152C147.749 9.56152 149.873 10.5609 151.446 12.5801V10.1302H156.815V30.4356H151.446V27.9465C149.873 29.9849 147.69 31.0042 144.897 31.0042L144.877 31.0238V31.0234ZM145.801 26.241C147.434 26.241 148.81 25.6728 149.932 24.536C151.053 23.3991 151.603 21.9686 151.603 20.2239C151.603 18.4793 151.053 17.1075 149.932 15.9902C148.81 14.8729 147.434 14.3047 145.801 14.3047C144.169 14.3047 142.753 14.8534 141.671 15.9706C140.589 17.0879 140.058 18.5184 140.058 20.2631C140.058 22.0077 140.589 23.4774 141.671 24.5947C142.753 25.712 144.13 26.2802 145.801 26.2802V26.241Z" fill="#153849"/>
<path d="M171.527 31.0625C168.4 31.0625 165.824 30.0236 163.778 27.9656C161.733 25.9077 160.71 23.3399 160.71 20.2826C160.71 17.2253 161.732 14.6771 163.778 12.6388C165.824 10.6004 168.4 9.58105 171.488 9.58105C174.104 9.58105 176.307 10.2672 178.096 11.639C179.886 13.0108 181.007 14.5396 181.459 16.2447L176.503 17.6561C176.267 16.735 175.697 15.951 174.792 15.2845C173.887 14.6179 172.806 14.2851 171.527 14.2851C169.895 14.2851 168.558 14.8729 167.535 16.0293C166.512 17.1858 166 18.5967 166 20.263C166 21.9294 166.512 23.3012 167.554 24.4968C168.597 25.6924 169.934 26.2802 171.567 26.2802C172.825 26.2802 173.907 25.9665 174.831 25.3199C175.756 24.673 176.326 23.9086 176.562 23.0266L181.518 24.3985C181.066 26.1427 179.964 27.6715 178.195 29.0046C176.425 30.3372 174.241 31.0038 171.625 31.0038L171.527 31.0625Z" fill="#153849"/>
<path d="M192.867 22.6152L190.487 25.2614V30.4357H185.177V1.13379H190.487V18.5186L197.823 10.1299H204.038L196.211 18.8714L204.845 30.4353H198.787L192.867 22.6148V22.6152Z" fill="#153849"/>
</svg>
